<?xml version="1.0" encoding="UTF-8"?>
<svg id="Layer_1" data-name="Layer 1" xmlns="http://www.w3.org/2000/svg" viewBox="0 0 215.64 191.26">
  <defs>
    <style>
      .cls-1 {
        fill: #981b1e;
      }

      .cls-2 {
        fill: #fff;
      }
    </style>
  </defs>
  <rect x="-1.1" y="-.52" width="217.28" height="192.37"/>
  <g>
    <path class="cls-2" d="M49.8,75.01h-23.15c-2.73,0-5.07,1.18-7.02,3.53-1.96,2.35-2.94,5.14-2.94,8.37v3.21c0,2.66.76,6.67,2.28,9.11.29.46.63.87.98,1.24,1.26,1.3,2.98,2.09,5.14,2.33.5.05,1.01.1,1.56.1l5.14-.08c1.32.04,2.46.61,3.39,1.73.97,1.16,1.47,2.56,1.47,4.17v2.84c0,1.66-.49,3.08-1.47,4.24s-2.16,1.75-3.55,1.75h-11.65s-3.14,0-3.14,0v7.37h23.05c2.72,0,5.07-1.18,7.02-3.53,1.96-2.35,2.94-5.14,2.94-8.37v-3.21c0-2.66-.76-7.53-2.28-9.98-.29-.46-.63-.87-.98-1.24-1.05-1.1-2.42-1.83-4.12-2.18-.79-.16-1.64-.25-2.57-.25l-6.14.09c-.9-.24-1.71-.76-2.39-1.58-.97-1.16-1.47-2.56-1.47-4.17v-3.59c0-1.66.49-3.51,1.47-4.68.97-1.16,2.16-1.74,3.55-1.74h11.65v.02h3.24v.04h10.96v44.55h11.71v-44.56h12.27v-5.53h-34.94ZM197.74,102.85v-5.63h-17.98v-16.69h17.67v-5.53h-69.38v5.53h11.8v44.55h11.71v-44.55h16.39v44.55h29.48v-5.53h-17.67v-16.69h17.99ZM122.06,78.3c-2.53-2.21-5.54-3.31-9.04-3.31h-12.89c-3.51,0-6.55,1.09-9.11,3.27-2.56,2.18-3.84,4.81-3.84,7.88v38.93h12.95v-8.07h12.89v8.07h12.83v-38.93c0-3.03-1.26-5.65-3.79-7.85Z"/>
    <path class="cls-2" d="M146.49,19.87c-2.8-2.35-6.15-3.53-10.03-3.53h-70.64v47.5H31.33l28.52-41.59v-5.92H17.03v5.92h28.6l-28.6,41.59v5.92h84.49v-5.92h-21.4v-17.81h21.7v-8.2h-21.7v-15.58h27.76v47.5h14.29v-23.72h7.1c1.99,0,3.69.58,5.09,1.74,1.39,1.16,2.1,2.56,2.1,4.16v17.81h14.24v-21.01c0-1.66-.7-3.07-2.1-4.24-1.4-1.16-3.07-1.74-5.01-1.74h-7.11c5.15,0,8.8-1.22,10.97-3.67,2.17-2.45,3.26-5,3.26-7.66v-3.21c-.02-3.22-1.42-6.01-4.22-8.36ZM136.47,34.15c0,1.62-.7,3-2.1,4.16-1.39,1.16-3.09,1.74-5.09,1.74h-7.1v-17.8h7.1c1.99,0,3.69.58,5.09,1.74,1.39,1.16,2.1,2.57,2.1,4.24v5.92ZM193.82,19.87c-2.8-2.35-6.15-3.53-10.03-3.53h-14.3c-3.88,0-7.23,1.16-10.05,3.49-2.82,2.32-4.24,5.13-4.24,8.41v29.63c0,3.28,1.41,6.08,4.24,8.4,2.82,2.33,6.17,3.49,10.05,3.49h14.29c3.89,0,7.23-1.17,10.03-3.53,2.8-2.35,4.2-5.14,4.2-8.37v-29.63c0-3.23-1.39-6.02-4.19-8.36ZM183.79,57.86c0,1.62-.7,3.01-2.1,4.2-1.39,1.19-3.09,1.78-5.09,1.78s-3.61-.59-5-1.78c-1.39-1.19-2.1-2.58-2.1-4.2v-29.61c0-1.66.7-3.07,2.1-4.24,1.39-1.16,3.07-1.74,5-1.74s3.69.58,5.09,1.74c1.39,1.16,2.1,2.57,2.1,4.24v29.61Z"/>
    <path class="cls-2" d="M19.61,132.7c-2.03,1.99-3.05,4.35-3.05,7.09v2.72c0,2.25.79,4.41,2.36,6.48,1.57,2.07,4.23,3.1,7.95,3.1h-5.16c-1.41,0-2.62.49-3.64,1.47-1.02.98-1.52,2.18-1.52,3.58v17.79h10.32v-15.08c0-1.37.51-2.55,1.51-3.53,1.01-.98,2.23-1.47,3.67-1.47h5.13v20.09h10.32v-45.23h-20.63c-2.81,0-5.25,1.01-7.27,2.99ZM32.07,134.71h5.13v15.09h-5.13c-1.44,0-2.66-.49-3.67-1.48-1.01-.98-1.51-2.16-1.51-3.53v-5.01c0-1.41.51-2.61,1.51-3.59,1-.98,2.23-1.47,3.67-1.47ZM82.06,169.95h-20.01v-15.1h14.16v-7.26h-14.16v-12.89h14.47v-5h-24.1v45.23h39.27v-20.09h14.34v-7.26h-14.34v-12.89h14.47v-5h-24.1v40.24ZM120.43,129.71h-9.63v45.23h24.1v-5h-14.47s0-40.23,0-40.23ZM197.14,142.26v-12.55h-9.63v15.08c0,1.37-.47,2.55-1.41,3.53-.95.98-2.08,1.47-3.43,1.47s-2.43-.49-3.38-1.47c-.94-.98-1.41-2.16-1.41-3.53v-15.08h-9.63v12.55c0,5.91,3.21,9.27,9.63,10.07-6.43.8-9.63,4.16-9.63,10.07v7.55h-19.1v-15.1h13.92v-7.26h-13.92v-12.89h14.47v-5h-24.09v45.23h38.36v-15.08c0-1.37.47-2.55,1.41-3.53.94-.98,2.06-1.47,3.38-1.47s2.48.49,3.43,1.47c.94.98,1.41,2.16,1.41,3.53v15.08h9.63v-12.55c0-5.87-3.21-9.22-9.63-10.07,6.42-.8,9.62-4.16,9.62-10.06Z"/>
  </g>
  <polygon class="cls-1" points="106.33 78.92 111.25 94.04 127.14 94.04 114.28 103.38 119.19 118.49 106.33 109.15 93.48 118.49 98.39 103.38 85.53 94.04 101.42 94.04 106.33 78.92"/>
</svg>